<svg width="152" height="43" viewBox="0 0 152 43" fill="none" xmlns="http://www.w3.org/2000/svg">
<rect width="152" height="43" fill="white" fill-opacity="0.01"/>
<path fill-rule="evenodd" clip-rule="evenodd" d="M41.0966 25.0275V30.8453H36V13.5H43.705C48.3329 13.5 50.7129 15.6757 50.7129 19.39C50.7129 21.4334 49.7272 23.4047 47.9121 24.2702L51.2057 30.8453H45.5081L42.7674 25.0275H41.0966ZM41.0966 17.2624V21.6618H43.2002C44.6306 21.6618 45.5081 20.7843 45.5081 19.4741C45.5081 18.1879 44.5825 17.2624 43.2122 17.2624H41.0966Z" fill="url(#paint0_linear_3928_12015)"/>
<path fill-rule="evenodd" clip-rule="evenodd" d="M61.0263 26.1924H65.4137C65.005 29.0533 62.5048 30.8323 58.8627 30.8323C54.5113 30.8323 51.9269 28.2479 51.9269 23.9326C51.9269 19.5933 54.5353 16.8887 58.7064 16.8887C62.8173 16.8887 65.4738 19.5091 65.4738 23.572V24.9063H56.675V25.2188C56.675 26.517 57.6125 27.4546 58.9348 27.4546C59.9325 27.4546 60.7378 26.9858 61.0263 26.1924ZM58.8146 20.2784C57.6967 20.2784 56.8432 21.0958 56.7471 22.2378H60.8821C60.7979 21.0477 59.9685 20.2784 58.8146 20.2784Z" fill="url(#paint1_linear_3928_12015)"/>
<path fill-rule="evenodd" clip-rule="evenodd" d="M80.8321 23.5961C80.8321 19.2086 78.981 16.7685 75.6393 16.7685C73.7281 16.7685 72.3217 17.7301 71.6846 19.3529H71.6005V16.9608H66.6601V33.5H71.5885V27.9354H71.6846C72.2977 29.486 73.7401 30.4236 75.6994 30.4236C78.993 30.4236 80.8321 27.9715 80.8321 23.5961ZM75.7836 23.5961C75.7836 25.4472 74.9782 26.6252 73.68 26.6252C72.3818 26.6252 71.5765 25.4712 71.5644 23.6081C71.5765 21.757 72.3938 20.5669 73.68 20.5669C74.9662 20.5669 75.7836 21.757 75.7836 23.5961Z" fill="url(#paint2_linear_3928_12015)"/>
<path fill-rule="evenodd" clip-rule="evenodd" d="M88.9939 30.8032C84.6666 30.8032 82.0221 28.3029 82.0221 23.8193C82.0221 19.456 84.7387 16.8596 88.9939 16.8596C93.2731 16.8596 95.9777 19.4319 95.9777 23.8193C95.9777 28.3149 93.3332 30.8032 88.9939 30.8032ZM88.9939 27.2812C90.22 27.2812 90.9773 26.0551 90.9773 23.8314C90.9773 21.6677 90.208 20.3815 88.9939 20.3815C87.7919 20.3815 87.0226 21.6677 87.0226 23.8314C87.0226 26.0551 87.7558 27.2812 88.9939 27.2812Z" fill="url(#paint3_linear_3928_12015)"/>
<path d="M97.1702 16.9515V30.7515H102.099V23.6108C102.099 21.7597 103.043 20.5817 104.894 20.5817C105.015 20.5817 105.141 20.5769 105.268 20.572C105.461 20.5645 105.658 20.557 105.846 20.5662V16.9772C105.645 16.9457 105.428 16.9303 105.198 16.9303C103.623 16.9303 102.579 17.6728 102.074 19.56H101.978V16.9515H97.1702Z" fill="url(#paint4_linear_3928_12015)"/>
<path d="M106.991 20.5432V16.9731H108.698V15.5H113.626V16.9731H115.958V20.5432H113.626V25.8054C113.626 26.6348 114.107 27.0675 115.117 27.0675C115.489 27.0675 115.669 27.0555 115.958 27.0074V30.4212C115.489 30.5173 114.864 30.6015 113.927 30.6015C110.176 30.6015 108.698 29.5197 108.698 26.8992V20.5432H106.991Z" fill="url(#paint5_linear_3928_12015)"/>
<path fill-rule="evenodd" clip-rule="evenodd" d="M117.244 23.8008C117.244 28.2844 119.889 30.7846 124.216 30.7846C128.555 30.7846 131.2 28.2964 131.2 23.8008C131.2 19.4134 128.495 16.841 124.216 16.841C119.961 16.841 117.244 19.4374 117.244 23.8008ZM126.199 23.8128C126.199 26.0366 125.442 27.2626 124.216 27.2626C122.978 27.2626 122.245 26.0366 122.245 23.8128C122.245 21.6492 123.014 20.363 124.216 20.363C125.43 20.363 126.199 21.6492 126.199 23.8128Z" fill="url(#paint6_linear_3928_12015)"/>
<g clip-path="url(#clip0_3928_12015)">
<path d="M16 37.5C24.8365 37.5 32 30.3365 32 21.5C32 12.6634 24.8365 5.5 16 5.5C7.16343 5.5 0 12.6634 0 21.5C0 30.3365 7.16343 37.5 16 37.5Z" fill="url(#paint7_linear_3928_12015)"/>
<path d="M15.9998 35.7862C23.8896 35.7862 30.2855 29.3903 30.2855 21.5005C30.2855 13.6108 23.8896 7.21484 15.9998 7.21484C8.11003 7.21484 1.71411 13.6108 1.71411 21.5005C1.71411 29.3903 8.11003 35.7862 15.9998 35.7862Z" fill="url(#paint8_linear_3928_12015)"/>
<mask id="mask0_3928_12015" style="mask-type:alpha" maskUnits="userSpaceOnUse" x="4" y="10" width="24" height="24">
<circle cx="15.9999" cy="21.7795" r="11.2941" fill="white"/>
</mask>
<g mask="url(#mask0_3928_12015)">
<path d="M11.753 15.3762C11.9269 13.8363 11.1578 13.3231 10.701 13.2893C12.1514 13.166 15.353 12.1826 16.2321 16.1951C16.6905 18.2875 16.6268 24.023 16.3102 26.7007C16.0073 29.2635 18.0798 32.9632 16.7803 32.2173C7.06032 26.6383 11.5356 17.301 11.753 15.3762Z" fill="url(#paint9_linear_3928_12015)"/>
<path d="M14.7945 25.1585C12.4913 26.5322 12.9869 28.9965 13.1575 29.3491C12.3205 28.4918 9.09044 23.3839 11.6834 21.0156C13.0356 19.7806 14.4062 18.3003 18.7626 17.0611C21.2442 16.3551 23.2714 14.5612 23.2814 14.7893C23.5267 20.3716 18.0723 23.2036 14.7945 25.1585Z" fill="url(#paint10_linear_3928_12015)"/>
</g>
</g>
<path d="M129.877 8.75H145.877C149.053 8.75 151.627 11.3244 151.627 14.5C151.627 17.6756 149.053 20.25 145.877 20.25H129.877C126.702 20.25 124.127 17.6756 124.127 14.5C124.127 11.3244 126.702 8.75 129.877 8.75Z" fill="url(#paint11_linear_3928_12015)" stroke="#F3B14B" stroke-width="0.5"/>
<path d="M132.433 17.564H129.896V11.2402H132.42C133.542 11.2402 134.278 11.8625 134.278 12.8179C134.278 13.4884 133.783 14.0888 133.152 14.194V14.229C134.011 14.3254 134.59 14.9346 134.59 15.776C134.59 16.8891 133.779 17.564 132.433 17.564ZM130.878 12.0422V13.931H131.978C132.828 13.931 133.297 13.5804 133.297 12.9537C133.297 12.3665 132.894 12.0422 132.184 12.0422H130.878ZM130.878 16.762H132.232C133.117 16.762 133.586 16.3983 133.586 15.7146C133.586 15.031 133.104 14.6804 132.175 14.6804H130.878V16.762Z" fill="#F3B14B"/>
<path d="M137.25 13.633C136.588 13.633 136.123 14.137 136.075 14.8338H138.38C138.358 14.1282 137.911 13.633 137.25 13.633ZM138.376 16.2098H139.274C139.143 17.0513 138.345 17.6516 137.289 17.6516C135.935 17.6516 135.115 16.7357 135.115 15.2808C135.115 13.8346 135.948 12.8705 137.25 12.8705C138.529 12.8705 139.327 13.7732 139.327 15.1712V15.4955H136.071V15.5525C136.071 16.3545 136.553 16.8847 137.311 16.8847C137.85 16.8847 138.249 16.613 138.376 16.2098Z" fill="#F3B14B"/>
<path d="M140.339 11.8625H141.29V12.9537H142.167V13.7031H141.29V16.2449C141.29 16.6437 141.465 16.8234 141.851 16.8234C141.948 16.8234 142.101 16.8146 142.162 16.8015V17.5508C142.057 17.5771 141.847 17.5947 141.636 17.5947C140.703 17.5947 140.339 17.2397 140.339 16.3501V13.7031H139.669V12.9537H140.339V11.8625Z" fill="#F3B14B"/>
<path d="M144.489 16.8935C145.151 16.8935 145.668 16.4377 145.668 15.8373V15.4736L144.533 15.5437C143.968 15.5832 143.648 15.833 143.648 16.2274C143.648 16.6305 143.981 16.8935 144.489 16.8935ZM144.226 17.6429C143.324 17.6429 142.693 17.0819 142.693 16.2537C142.693 15.4473 143.31 14.9521 144.406 14.8907L145.668 14.8162V14.4613C145.668 13.9485 145.322 13.6418 144.743 13.6418C144.196 13.6418 143.854 13.9047 143.771 14.3167H142.877C142.929 13.484 143.639 12.8705 144.779 12.8705C145.896 12.8705 146.61 13.4621 146.61 14.3868V17.564H145.703V16.8058H145.681C145.414 17.3186 144.831 17.6429 144.226 17.6429Z" fill="#F3B14B"/>
<defs>
<linearGradient id="paint0_linear_3928_12015" x1="34.798" y1="22.2292" x2="132.653" y2="22.2292" gradientUnits="userSpaceOnUse">
<stop stop-color="#F3B14B"/>
<stop offset="1" stop-color="#F3934B"/>
</linearGradient>
<linearGradient id="paint1_linear_3928_12015" x1="34.798" y1="22.2292" x2="132.653" y2="22.2292" gradientUnits="userSpaceOnUse">
<stop stop-color="#F3B14B"/>
<stop offset="1" stop-color="#F3934B"/>
</linearGradient>
<linearGradient id="paint2_linear_3928_12015" x1="34.798" y1="22.2292" x2="132.653" y2="22.2292" gradientUnits="userSpaceOnUse">
<stop stop-color="#F3B14B"/>
<stop offset="1" stop-color="#F3934B"/>
</linearGradient>
<linearGradient id="paint3_linear_3928_12015" x1="34.798" y1="22.2292" x2="132.653" y2="22.2292" gradientUnits="userSpaceOnUse">
<stop stop-color="#F3B14B"/>
<stop offset="1" stop-color="#F3934B"/>
</linearGradient>
<linearGradient id="paint4_linear_3928_12015" x1="34.798" y1="22.2292" x2="132.653" y2="22.2292" gradientUnits="userSpaceOnUse">
<stop stop-color="#F3B14B"/>
<stop offset="1" stop-color="#F3934B"/>
</linearGradient>
<linearGradient id="paint5_linear_3928_12015" x1="34.798" y1="22.2292" x2="132.653" y2="22.2292" gradientUnits="userSpaceOnUse">
<stop stop-color="#F3B14B"/>
<stop offset="1" stop-color="#F3934B"/>
</linearGradient>
<linearGradient id="paint6_linear_3928_12015" x1="34.798" y1="22.2292" x2="132.653" y2="22.2292" gradientUnits="userSpaceOnUse">
<stop stop-color="#F3B14B"/>
<stop offset="1" stop-color="#F3934B"/>
</linearGradient>
<linearGradient id="paint7_linear_3928_12015" x1="27.8827" y1="9.26283" x2="16" y2="37.5" gradientUnits="userSpaceOnUse">
<stop stop-color="#FED28F"/>
<stop offset="0.432692" stop-color="#F3A84B"/>
<stop offset="1" stop-color="#F39D4B"/>
</linearGradient>
<linearGradient id="paint8_linear_3928_12015" x1="15.9998" y1="7.21484" x2="15.9998" y2="35.7862" gradientUnits="userSpaceOnUse">
<stop stop-color="#434347"/>
<stop offset="1"/>
</linearGradient>
<linearGradient id="paint9_linear_3928_12015" x1="12.8778" y1="13.0567" x2="14.5372" y2="32.5297" gradientUnits="userSpaceOnUse">
<stop stop-color="#FF4D09"/>
<stop offset="1" stop-color="#F3B14B"/>
</linearGradient>
<linearGradient id="paint10_linear_3928_12015" x1="19.8363" y1="18.0456" x2="11.7404" y2="26.8774" gradientUnits="userSpaceOnUse">
<stop stop-color="#F3B14B"/>
<stop offset="1" stop-color="#F28521"/>
</linearGradient>
<linearGradient id="paint11_linear_3928_12015" x1="123.877" y1="14.5" x2="151.877" y2="14.5" gradientUnits="userSpaceOnUse">
<stop stop-color="#FFF6EA"/>
<stop offset="0.99" stop-color="#FFEDE5"/>
</linearGradient>
<clipPath id="clip0_3928_12015">
<rect width="32" height="32" fill="white" transform="translate(0 5.5)"/>
</clipPath>
</defs>
</svg>
